<svg width="20" height="20" viewBox="0 0 20 20" fill="none" xmlns="http://www.w3.org/2000/svg">
<path fill-rule="evenodd" clip-rule="evenodd" d="M19.7973 7.98697C19.6662 7.34455 19.4692 6.71184 19.2144 6.10745C18.964 5.51398 18.6533 4.94276 18.2924 4.40875C17.9344 3.8792 17.5238 3.38161 17.0715 2.92973C16.6196 2.47704 16.1216 2.06602 15.5925 1.70881C15.0585 1.34674 14.4864 1.03726 13.8938 0.786035C13.2894 0.531575 12.6571 0.334156 12.0142 0.203892C11.356 0.0687731 10.678 0 10.0008 0C9.32279 0 8.64558 0.0687731 7.98657 0.203892C7.34415 0.334156 6.71144 0.531979 6.10745 0.786035C5.51479 1.03726 4.94276 1.34714 4.40795 1.70881C3.87839 2.06602 3.3808 2.47664 2.92892 2.92973C2.47664 3.38161 2.06643 3.87961 1.70881 4.40875C1.34755 4.94276 1.03726 5.51398 0.786844 6.10745C0.530766 6.71184 0.33456 7.34455 0.203083 7.98697C0.0683684 8.64436 0 9.32238 0 10C0 10.6788 0.0683684 11.3568 0.203083 12.0146C0.33456 12.6571 0.53117 13.2898 0.786439 13.8938C1.03685 14.4864 1.34755 15.0593 1.7084 15.5933C2.06602 16.1228 2.47623 16.6196 2.92852 17.0723C3.3804 17.5242 3.87839 17.9344 4.40754 18.2924C4.94235 18.6537 5.51438 18.964 6.10704 19.2144C6.71063 19.4704 7.34374 19.6654 7.98616 19.7973C8.64517 19.9332 9.32238 20.0012 10.0004 20.0012C10.6776 20.0012 11.3556 19.9332 12.0138 19.7973C12.6571 19.6654 13.289 19.47 13.8934 19.2144C14.486 18.964 15.0581 18.6533 15.5921 18.2924C16.1216 17.9344 16.6192 17.5246 17.0711 17.0723C17.523 16.6196 17.934 16.1224 18.292 15.5933C18.6533 15.0593 18.9635 14.4864 19.214 13.8938C19.4692 13.2902 19.6658 12.6571 19.7969 12.0146C19.932 11.3564 20 10.6784 20 10C20.0004 9.32238 19.9324 8.64436 19.7973 7.98697ZM18.5376 9.91545C18.4142 9.88875 15.5241 9.26655 12.5895 9.6355C12.5296 9.48946 12.4685 9.3422 12.4054 9.19454C12.2278 8.77665 12.0365 8.36239 11.8375 7.95582C15.2106 6.57955 16.58 4.5993 16.5957 4.57583C17.7936 6.02977 18.5181 7.88826 18.5376 9.91545ZM15.641 3.59076C15.6196 3.62393 14.4035 5.47514 11.1801 6.68352C9.72005 4.00097 8.11602 1.87022 7.98778 1.70112C8.63344 1.54456 9.30661 1.46001 10.0004 1.46001C12.1631 1.46001 14.1361 2.26587 15.641 3.59076ZM7.95461 1.708C7.95461 1.70881 7.95299 1.70962 7.95299 1.70962C7.95299 1.70962 7.94369 1.71204 7.92791 1.71528C7.9364 1.71285 7.94611 1.71123 7.95461 1.708ZM6.35624 2.27598C6.46992 2.4285 8.04968 4.56976 9.52789 7.19689C5.427 8.28634 1.8682 8.24386 1.64246 8.23981C2.1975 5.59448 3.97468 3.40103 6.35624 2.27598ZM1.46001 10C1.46001 9.90898 1.46406 9.81997 1.46729 9.73017C1.61778 9.7334 5.83802 9.82928 10.235 8.51329C10.4798 8.99227 10.714 9.47894 10.928 9.96521C10.8152 9.99676 10.7027 10.0307 10.5914 10.0672C5.98244 11.5567 3.64456 15.7041 3.64456 15.7041C3.64456 15.7041 3.6478 15.7065 3.6478 15.7082C2.28812 14.1947 1.46001 12.1943 1.46001 10ZM10.0004 18.5412C7.93357 18.5412 6.03787 17.8065 4.56046 16.584C4.67252 16.675 4.75181 16.7333 4.75181 16.7333C4.75181 16.7333 6.38901 13.1627 11.4535 11.3981C11.4726 11.3908 11.4916 11.3856 11.5106 11.3799C12.7125 14.5026 13.2085 17.118 13.3351 17.8644C12.31 18.3005 11.1833 18.5412 10.0004 18.5412ZM14.7728 17.0844C14.6859 16.5686 14.2308 14.0621 13.1106 10.9839C15.8671 10.5429 18.2568 11.299 18.4328 11.3568C18.0525 13.7364 16.6904 15.7891 14.7728 17.0844Z" fill="white"/>
</svg>
